<?xml version="1.0" encoding="utf-8"?>
<!-- Generator: Adobe Illustrator 24.2.3, SVG Export Plug-In . SVG Version: 6.00 Build 0)  -->
<svg version="1.1" id="Layer_1" xmlns="http://www.w3.org/2000/svg" xmlns:xlink="http://www.w3.org/1999/xlink" x="0px" y="0px"
	 viewBox="0 0 32 32" style="enable-background:new 0 0 32 32;" xml:space="preserve">
<g id="Layer_2_2_">
	<g>
		<g>
			<g>
				<linearGradient id="SVGID_1_" gradientUnits="userSpaceOnUse" x1="0.5985" y1="16.3569" x2="30.8308" y2="16.3569">
					<stop  offset="3.535350e-02" style="stop-color:#9F19AB"/>
					<stop  offset="0.2438" style="stop-color:#AE25B1"/>
					<stop  offset="0.6455" style="stop-color:#D744BF"/>
					<stop  offset="1" style="stop-color:#FF63CE"/>
				</linearGradient>
				<circle style="fill:url(#SVGID_1_);" cx="15.7" cy="16.4" r="15.1"/>
				<g style="display:none;">
					<path style="display:inline;fill:#991135;" d="M28.1-0.9c-5.6-2.2-12.9-2.1-12.9-2.1S7.9-3.1,2.3-0.9c0,0-3.8,1.5-3.6,4.7h0
						C-0.6,3.3,1,2.8,2.9,2.6C5,2.3,6.8,2.5,7.5,2.9h0c0,0-0.3-3.1,7.7-3c8-0.1,7.7,3,7.7,3h0c0.7-0.5,2.5-0.6,4.6-0.4
						c1.9,0.2,3.6,0.8,4.2,1.3h0C31.9,0.6,28.1-0.9,28.1-0.9z"/>
				</g>
				<g>
					<g>
						<ellipse style="fill:#6A1B9A;" cx="15.6" cy="16.6" rx="12.8" ry="12.8"/>
					</g>
				</g>
				<g>
					<g>
						<ellipse style="fill:#F4F4F4;" cx="15.6" cy="16.6" rx="12.3" ry="12.3"/>
					</g>
					<g>
						<g>
							<linearGradient id="SVGID_2_" gradientUnits="userSpaceOnUse" x1="19.8419" y1="9.8911" x2="23.9976" y2="9.8911">
								<stop  offset="0" style="stop-color:#834D9B"/>
								<stop  offset="1" style="stop-color:#A84D9B"/>
							</linearGradient>
							<path style="fill:url(#SVGID_2_);" d="M23.8,10.8c-0.5,1-1.7,1.5-2.8,1c-1-0.5-1.5-1.7-1-2.8c0.5-1,1.7-1.5,2.8-1
								C23.8,8.5,24.3,9.7,23.8,10.8z"/>
						</g>
						<g>
							<linearGradient id="SVGID_3_" gradientUnits="userSpaceOnUse" x1="14.8318" y1="7.5463" x2="18.9867" y2="7.5463">
								<stop  offset="0" style="stop-color:#834D9B"/>
								<stop  offset="1" style="stop-color:#A84D9B"/>
							</linearGradient>
							<path style="fill:url(#SVGID_3_);" d="M18.8,8.4c-0.5,1-1.7,1.5-2.8,1c-1-0.5-1.5-1.7-1-2.8c0.5-1,1.7-1.5,2.8-1
								C18.8,6.2,19.3,7.4,18.8,8.4z"/>
						</g>
						<g>
							<linearGradient id="SVGID_4_" gradientUnits="userSpaceOnUse" x1="9.4464" y1="8.3032" x2="13.6012" y2="8.3032">
								<stop  offset="0" style="stop-color:#834D9B"/>
								<stop  offset="1" style="stop-color:#A84D9B"/>
							</linearGradient>
							<path style="fill:url(#SVGID_4_);" d="M13.4,9.2c-0.5,1-1.7,1.5-2.8,1c-1-0.5-1.5-1.7-1-2.8c0.5-1,1.7-1.5,2.8-1
								S13.9,8.1,13.4,9.2z"/>
						</g>
						<g>
							<linearGradient id="SVGID_5_" gradientUnits="userSpaceOnUse" x1="5.6354" y1="11.8425" x2="9.7912" y2="11.8425">
								<stop  offset="0" style="stop-color:#834D9B"/>
								<stop  offset="1" style="stop-color:#A84D9B"/>
							</linearGradient>
							<path style="fill:url(#SVGID_5_);" d="M9.6,12.7c-0.5,1-1.7,1.5-2.8,1c-1-0.5-1.5-1.7-1-2.8c0.5-1,1.7-1.5,2.8-1
								C9.6,10.4,10.1,11.7,9.6,12.7z"/>
						</g>
						<g>
							<linearGradient id="SVGID_6_" gradientUnits="userSpaceOnUse" x1="4.3621" y1="17.1241" x2="8.517" y2="17.1241">
								<stop  offset="0" style="stop-color:#834D9B"/>
								<stop  offset="1" style="stop-color:#A84D9B"/>
							</linearGradient>
							<path style="fill:url(#SVGID_6_);" d="M8.3,18c-0.5,1-1.7,1.5-2.8,1c-1-0.5-1.5-1.7-1-2.8c0.5-1,1.7-1.5,2.8-1
								C8.4,15.7,8.8,17,8.3,18z"/>
						</g>
						<g>
							<linearGradient id="SVGID_7_" gradientUnits="userSpaceOnUse" x1="6.183" y1="22.0867" x2="10.3388" y2="22.0867">
								<stop  offset="0" style="stop-color:#834D9B"/>
								<stop  offset="1" style="stop-color:#A84D9B"/>
							</linearGradient>
							<path style="fill:url(#SVGID_7_);" d="M10.1,23c-0.5,1-1.7,1.5-2.8,1c-1-0.5-1.5-1.7-1-2.8c0.5-1,1.7-1.5,2.8-1
								C10.2,20.7,10.6,21.9,10.1,23z"/>
						</g>
						<g>
							<linearGradient id="SVGID_8_" gradientUnits="userSpaceOnUse" x1="10.3457" y1="25.2877" x2="14.5014" y2="25.2877">
								<stop  offset="0" style="stop-color:#834D9B"/>
								<stop  offset="1" style="stop-color:#A84D9B"/>
							</linearGradient>
							<path style="fill:url(#SVGID_8_);" d="M14.3,26.2c-0.5,1-1.7,1.5-2.8,1c-1-0.5-1.5-1.7-1-2.8c0.5-1,1.7-1.5,2.8-1
								C14.3,23.9,14.8,25.1,14.3,26.2z"/>
						</g>
						<g>
							<linearGradient id="SVGID_9_" gradientUnits="userSpaceOnUse" x1="15.5249" y1="25.6869" x2="19.6797" y2="25.6869">
								<stop  offset="0" style="stop-color:#834D9B"/>
								<stop  offset="1" style="stop-color:#A84D9B"/>
							</linearGradient>
							<path style="fill:url(#SVGID_9_);" d="M19.5,26.6c-0.5,1-1.7,1.5-2.8,1c-1-0.5-1.5-1.7-1-2.8c0.5-1,1.7-1.5,2.8-1
								S20,25.5,19.5,26.6z"/>
						</g>
						<g>
							<linearGradient id="SVGID_10_" gradientUnits="userSpaceOnUse" x1="20.155" y1="23.2219" x2="24.3107" y2="23.2219">
								<stop  offset="0" style="stop-color:#834D9B"/>
								<stop  offset="1" style="stop-color:#A84D9B"/>
							</linearGradient>
							<path style="fill:url(#SVGID_10_);" d="M24.1,24.1c-0.5,1-1.7,1.5-2.8,1c-1-0.5-1.5-1.7-1-2.8c0.5-1,1.7-1.5,2.8-1
								C24.2,21.8,24.6,23.1,24.1,24.1z"/>
						</g>
					</g>
					<g>
						<linearGradient id="SVGID_11_" gradientUnits="userSpaceOnUse" x1="22.7128" y1="19.8636" x2="28.4564" y2="19.8636">
							<stop  offset="3.535350e-02" style="stop-color:#9F19AB"/>
							<stop  offset="0.2438" style="stop-color:#AE25B1"/>
							<stop  offset="0.6455" style="stop-color:#D744BF"/>
							<stop  offset="1" style="stop-color:#FF63CE"/>
						</linearGradient>
						<path style="fill:url(#SVGID_11_);" d="M28.5,18.2c0,0-0.1,1.8-0.9,3.2c0,0-3.7,0.4-4.9-2c0,0-0.1-1.4,1.4-0.2
							C25.6,20.4,28.5,18.2,28.5,18.2z"/>
					</g>
					<g>
						<linearGradient id="SVGID_12_" gradientUnits="userSpaceOnUse" x1="9.3134" y1="16.6171" x2="21.9204" y2="16.6171">
							<stop  offset="0" style="stop-color:#834D9B"/>
							<stop  offset="1" style="stop-color:#A84D9B"/>
						</linearGradient>
						<ellipse style="fill:url(#SVGID_12_);" cx="15.6" cy="16.6" rx="6.3" ry="6.3"/>
					</g>
					<g>
						<ellipse style="fill:#EAE8E9;" cx="15.6" cy="16.6" rx="5.6" ry="5.6"/>
					</g>
				</g>
				<g style="display:none;">
					<path style="display:inline;fill:#991135;" d="M20.8-2.9c-0.5,0-0.9-0.1-1.6,2.4c-0.7,2.5-7.3,2.5-8,0s-1.1-2.4-1.6-2.4
						C9.1-2.9,8.1-0.6,9,1.4c0.5,1.2,1.1,1.7,1.5,1.9c0.3,0.1,0.4,0.4,0.4,0.7v0.1h4.3h4.3V4c0-0.3,0.2-0.6,0.4-0.7
						c0.4-0.2,0.9-0.7,1.5-1.9C22.3-0.6,21.3-2.9,20.8-2.9z"/>
				</g>
				<g style="display:none;">
					<path style="display:inline;fill:#991135;" d="M8,5.3c0.1,0.7-2,1.6-4.6,1.9c-2.6,0.3-4.8,0-4.9-0.8c-0.1-0.7,2-1.6,4.6-1.9
						C5.7,4.2,7.9,4.6,8,5.3z"/>
				</g>
				<g style="display:none;">
					<path style="display:inline;fill:#991135;" d="M3.1,4.5c2.6-0.3,4.8,0,4.9,0.8l-0.2-2C7.7,2.6,5.5,2.2,2.9,2.6
						s-4.7,1.2-4.6,1.9l0.2,2C-1.5,5.7,0.5,4.8,3.1,4.5z"/>
				</g>
				<g style="display:none;">
					<path style="display:inline;fill:#991135;" d="M22.3,5.3c-0.1,0.7,2,1.6,4.6,1.9c2.6,0.3,4.8,0,4.9-0.8c0.1-0.7-2-1.6-4.6-1.9
						C24.6,4.2,22.4,4.6,22.3,5.3z"/>
				</g>
				<g style="display:none;">
					<path style="display:inline;fill:#991135;" d="M27.2,4.5c-2.6-0.3-4.8,0-4.9,0.8l0.2-2c0.1-0.7,2.3-1.1,4.9-0.8
						s4.7,1.2,4.6,1.9l-0.2,2C31.9,5.7,29.8,4.8,27.2,4.5z"/>
				</g>
				<g style="display:none;">
					<g style="display:inline;">
						<g>
							<path style="fill:#991135;" d="M25.3,4.9c0.6,0,1.2,0,1.8,0.1c2.7,0.3,4.1,1.1,4.2,1.4c-0.1,0.2-0.9,0.5-2.6,0.5
								c-0.6,0-1.2,0-1.8-0.1c-2.7-0.3-4.1-1.1-4.2-1.4C22.9,5.2,23.7,4.9,25.3,4.9L25.3,4.9z M25.3,4.4c-1.7,0-2.9,0.3-3,0.9
								c-0.1,0.7,2,1.6,4.6,1.9c0.7,0.1,1.3,0.1,1.9,0.1c1.7,0,2.9-0.3,3-0.9c0.1-0.7-2-1.6-4.6-1.9C26.6,4.5,25.9,4.4,25.3,4.4
								L25.3,4.4z"/>
						</g>
					</g>
				</g>
				<g style="display:none;">
					<g style="display:inline;">
						<g>
							<path style="fill:#991135;" d="M5,4.9c1.7,0,2.4,0.3,2.6,0.5C7.5,5.6,6.1,6.4,3.4,6.7C2.8,6.8,2.2,6.9,1.6,6.9
								c-1.7,0-2.4-0.3-2.6-0.5C-0.9,6.1,0.5,5.3,3.2,5C3.8,4.9,4.4,4.9,5,4.9L5,4.9z M5,4.4c-0.6,0-1.2,0-1.9,0.1
								C0.5,4.8-1.5,5.7-1.4,6.4c0.1,0.5,1.3,0.9,3,0.9c0.6,0,1.2,0,1.9-0.1C6.1,6.9,8.1,6,8,5.3C8,4.7,6.7,4.4,5,4.4L5,4.4z"/>
						</g>
					</g>
				</g>
				<g style="display:none;">
					<path style="display:inline;fill:#989FA8;" d="M10.1-2.1c0,0,0-0.5-0.3-0.5c-0.3,0-0.6,0-0.7,1C8.9-0.7,8.9,0.8,9.6,1.9
						C10.3,3,11,3.2,11.3,3.1s-0.7-1.3-0.9-2.3C10.1-0.1,10.1-2.1,10.1-2.1z"/>
				</g>
				<g style="display:none;">
					<path style="display:inline;fill:#989FA8;" d="M19.7-1.1c0,0-0.2,2.5-2.9,2.5c-2.6,0-1.6,0.5-1.2,0.7s2.9,0.6,4-0.5
						s0.9-3.4,0.8-3.6C20.4-2.3,19.9-2.2,19.7-1.1z"/>
				</g>
				<g style="display:none;">
					<path style="display:inline;fill:#989FA8;" d="M6,2.5C5.2,2.4,4.1,2.4,2.9,2.6C0.3,2.9-1.7,3.7-1.6,4.5l0.2,2
						C-1.5,6-0.9,5.6,0,5.3C1.5,3.9,4.2,3,6,2.5z"/>
				</g>
				<g style="display:none;">
					<path style="display:inline;fill:#AA224C;" d="M3.2,5C0.5,5.3-0.9,6.1-1,6.4c0.1,0.2,0.9,0.5,2.6,0.5c0,0,0.1,0,0.1,0
						C1.8,6,2.9,5.3,3.9,4.9C3.7,4.9,3.4,5,3.2,5z"/>
				</g>
				<g style="display:none;">
					<path style="display:inline;fill:#AA224C;" d="M27.2,5c-0.6-0.1-1.2-0.1-1.8-0.1c-1.7,0-2.4,0.3-2.6,0.5
						c0.1,0.2,1.1,0.9,3.1,1.2c1-0.5,2.7-0.8,4.2-0.9C29.4,5.4,28.4,5.1,27.2,5z"/>
				</g>
				<g style="display:none;">
					<path style="display:inline;fill:#989FA8;" d="M27.4,2.6c-2.6-0.3-4.8,0-4.9,0.8l-0.2,2c0.1-0.7,1.9-1,4.2-0.8
						c0.7-0.8,1.7-1.3,2.7-1.6C28.7,2.7,28.1,2.6,27.4,2.6z"/>
				</g>
				<g style="display:none;">
					<path style="display:inline;fill:#989FA8;" d="M11.5,8c0,0-2.5,1.3-2.7,3.2c-0.1,2,0.4-0.9,3.4-1.8c2.8-0.9,4.2-0.2,4.7-0.2
						C17.3,9.2,15.1,6.5,11.5,8z"/>
				</g>
				<g style="display:none;">
					<path style="display:inline;fill:#989FA8;" d="M19,25.1c-2,0.5,2.6,0.9,4,0c1.3-0.8,1.1-5.7,0.9-6.5
						C23.6,17.9,21.7,24.3,19,25.1z"/>
				</g>
				<g style="display:none;">
					<path style="display:inline;fill:#989FA8;" d="M7.8-1.8c0,0-4.9,0.9-6.3,2S0.2,1.4,0.8,1.5c0.6,0,3-0.1,4.8-1.4S9-2,7.8-1.8z"
						/>
				</g>
				<g style="display:none;">
					<path style="display:inline;fill:#989FA8;" d="M26.4-0.8c0,0-2.4-0.9-3.3-1.1c-1-0.2-0.5,1.2-0.5,1.9s2.3,0.8,3.8,0.9
						s2.4,0.8,2.6,0.2C29.2,0.6,27.3-0.5,26.4-0.8z"/>
				</g>
			</g>
			<path style="fill:#EFEFEF;" d="M20.2,13.5c-1-1.1-2.4-1.8-4-1.8c-2.9,0-5.3,2.4-5.3,5.3c0,1.7,0.8,3.3,2.1,4.2
				C15,17.1,17.7,14.8,20.2,13.5z"/>
		</g>
	</g>
</g>
<g>
	<linearGradient id="SVGID_13_" gradientUnits="userSpaceOnUse" x1="11.1813" y1="16.5813" x2="13.4281" y2="16.5813">
		<stop  offset="0" style="stop-color:#834D9B"/>
		<stop  offset="1" style="stop-color:#A84D9B"/>
	</linearGradient>
	<path style="fill:url(#SVGID_13_);" d="M12,18v-2.4h-0.8v-0.5h2.2v0.5h-0.8V18H12z"/>
	<linearGradient id="SVGID_14_" gradientUnits="userSpaceOnUse" x1="13.8618" y1="16.5813" x2="15.7239" y2="16.5813">
		<stop  offset="0" style="stop-color:#834D9B"/>
		<stop  offset="1" style="stop-color:#A84D9B"/>
	</linearGradient>
	<path style="fill:url(#SVGID_14_);" d="M13.9,18v-2.9h1.8v0.5h-1.2v0.6h1.1v0.5h-1.1v0.7h1.3V18H13.9z"/>
	<linearGradient id="SVGID_15_" gradientUnits="userSpaceOnUse" x1="16.2111" y1="16.5813" x2="18.0077" y2="16.5813">
		<stop  offset="0" style="stop-color:#834D9B"/>
		<stop  offset="1" style="stop-color:#A84D9B"/>
	</linearGradient>
	<path style="fill:url(#SVGID_15_);" d="M16.2,18v-2.9h0.6v2.4H18V18H16.2z"/>
	<linearGradient id="SVGID_16_" gradientUnits="userSpaceOnUse" x1="18.4373" y1="16.5813" x2="20.2994" y2="16.5813">
		<stop  offset="0" style="stop-color:#834D9B"/>
		<stop  offset="1" style="stop-color:#A84D9B"/>
	</linearGradient>
	<path style="fill:url(#SVGID_16_);" d="M18.4,18v-2.9h1.8v0.5H19v0.6h1.1v0.5H19v0.7h1.3V18H18.4z"/>
</g>
</svg>
