<?xml version="1.0" encoding="utf-8"?>
<!-- Generator: Adobe Illustrator 24.2.3, SVG Export Plug-In . SVG Version: 6.00 Build 0)  -->
<svg version="1.1" id="Layer_1" xmlns="http://www.w3.org/2000/svg" xmlns:xlink="http://www.w3.org/1999/xlink" x="0px" y="0px"
	 viewBox="0 0 33 32" style="enable-background:new 0 0 33 32;" xml:space="preserve">
<g id="Layer_2_2_">
	<g>
		<g>
			<g>
				<linearGradient id="SVGID_1_" gradientUnits="userSpaceOnUse" x1="1.8078" y1="16.4916" x2="32.04" y2="16.4916">
					<stop  offset="3.535350e-02" style="stop-color:#9F19AB"/>
					<stop  offset="0.2438" style="stop-color:#AE25B1"/>
					<stop  offset="0.6455" style="stop-color:#D744BF"/>
					<stop  offset="1" style="stop-color:#FF63CE"/>
				</linearGradient>
				<circle style="fill:url(#SVGID_1_);" cx="16.9" cy="16.5" r="15.1"/>
				<g style="display:none;">
					<path style="display:inline;fill:#991135;" d="M29.3-0.7C23.7-3,16.4-2.8,16.4-2.8S9.1-3,3.5-0.7c0,0-3.8,1.5-3.6,4.7h0
						c0.7-0.6,2.3-1.1,4.2-1.3C6.2,2.4,8,2.6,8.7,3.1h0c0,0-0.3-3.1,7.7-3c8-0.1,7.7,3,7.7,3h0c0.7-0.5,2.5-0.6,4.6-0.4
						c1.9,0.2,3.6,0.8,4.2,1.3h0C33.1,0.8,29.3-0.7,29.3-0.7z"/>
				</g>
				<g>
					<g>
						<ellipse style="fill:#6A1B9A;" cx="16.8" cy="16.8" rx="12.8" ry="12.8"/>
					</g>
				</g>
				<g>
					<g>
						<ellipse style="fill:#F4F4F4;" cx="16.8" cy="16.8" rx="12.3" ry="12.3"/>
					</g>
					<g>
						<g>
							<linearGradient id="SVGID_2_" gradientUnits="userSpaceOnUse" x1="21.0511" y1="10.0258" x2="25.2069" y2="10.0258">
								<stop  offset="0" style="stop-color:#834D9B"/>
								<stop  offset="1" style="stop-color:#A84D9B"/>
							</linearGradient>
							<path style="fill:url(#SVGID_2_);" d="M25,10.9c-0.5,1-1.7,1.5-2.8,1c-1-0.5-1.5-1.7-1-2.8c0.5-1,1.7-1.5,2.8-1
								C25,8.6,25.5,9.9,25,10.9z"/>
						</g>
						<g>
							<linearGradient id="SVGID_3_" gradientUnits="userSpaceOnUse" x1="16.0411" y1="7.681" x2="20.196" y2="7.681">
								<stop  offset="0" style="stop-color:#834D9B"/>
								<stop  offset="1" style="stop-color:#A84D9B"/>
							</linearGradient>
							<path style="fill:url(#SVGID_3_);" d="M20,8.6c-0.5,1-1.7,1.5-2.8,1c-1-0.5-1.5-1.7-1-2.8c0.5-1,1.7-1.5,2.8-1
								C20,6.3,20.5,7.5,20,8.6z"/>
						</g>
						<g>
							<linearGradient id="SVGID_4_" gradientUnits="userSpaceOnUse" x1="10.6556" y1="8.4379" x2="14.8105" y2="8.4379">
								<stop  offset="0" style="stop-color:#834D9B"/>
								<stop  offset="1" style="stop-color:#A84D9B"/>
							</linearGradient>
							<path style="fill:url(#SVGID_4_);" d="M14.6,9.3c-0.5,1-1.7,1.5-2.8,1c-1-0.5-1.5-1.7-1-2.8c0.5-1,1.7-1.5,2.8-1
								S15.1,8.3,14.6,9.3z"/>
						</g>
						<g>
							<linearGradient id="SVGID_5_" gradientUnits="userSpaceOnUse" x1="6.8447" y1="11.9772" x2="11.0005" y2="11.9772">
								<stop  offset="0" style="stop-color:#834D9B"/>
								<stop  offset="1" style="stop-color:#A84D9B"/>
							</linearGradient>
							<path style="fill:url(#SVGID_5_);" d="M10.8,12.9c-0.5,1-1.7,1.5-2.8,1c-1-0.5-1.5-1.7-1-2.8c0.5-1,1.7-1.5,2.8-1
								C10.8,10.6,11.3,11.8,10.8,12.9z"/>
						</g>
						<g>
							<linearGradient id="SVGID_6_" gradientUnits="userSpaceOnUse" x1="5.5714" y1="17.2588" x2="9.7263" y2="17.2588">
								<stop  offset="0" style="stop-color:#834D9B"/>
								<stop  offset="1" style="stop-color:#A84D9B"/>
							</linearGradient>
							<path style="fill:url(#SVGID_6_);" d="M9.5,18.1c-0.5,1-1.7,1.5-2.8,1c-1-0.5-1.5-1.7-1-2.8c0.5-1,1.7-1.5,2.8-1
								C9.6,15.9,10,17.1,9.5,18.1z"/>
						</g>
						<g>
							<linearGradient id="SVGID_7_" gradientUnits="userSpaceOnUse" x1="7.3923" y1="22.2214" x2="11.5481" y2="22.2214">
								<stop  offset="0" style="stop-color:#834D9B"/>
								<stop  offset="1" style="stop-color:#A84D9B"/>
							</linearGradient>
							<path style="fill:url(#SVGID_7_);" d="M11.4,23.1c-0.5,1-1.7,1.5-2.8,1c-1-0.5-1.5-1.7-1-2.8c0.5-1,1.7-1.5,2.8-1
								C11.4,20.8,11.8,22.1,11.4,23.1z"/>
						</g>
						<g>
							<linearGradient id="SVGID_8_" gradientUnits="userSpaceOnUse" x1="11.555" y1="25.4224" x2="15.7107" y2="25.4224">
								<stop  offset="0" style="stop-color:#834D9B"/>
								<stop  offset="1" style="stop-color:#A84D9B"/>
							</linearGradient>
							<path style="fill:url(#SVGID_8_);" d="M15.5,26.3c-0.5,1-1.7,1.5-2.8,1c-1-0.5-1.5-1.7-1-2.8c0.5-1,1.7-1.5,2.8-1
								C15.6,24,16,25.3,15.5,26.3z"/>
						</g>
						<g>
							<linearGradient id="SVGID_9_" gradientUnits="userSpaceOnUse" x1="16.7341" y1="25.8216" x2="20.889" y2="25.8216">
								<stop  offset="0" style="stop-color:#834D9B"/>
								<stop  offset="1" style="stop-color:#A84D9B"/>
							</linearGradient>
							<path style="fill:url(#SVGID_9_);" d="M20.7,26.7c-0.5,1-1.7,1.5-2.8,1c-1-0.5-1.5-1.7-1-2.8c0.5-1,1.7-1.5,2.8-1
								C20.7,24.4,21.2,25.7,20.7,26.7z"/>
						</g>
						<g>
							<linearGradient id="SVGID_10_" gradientUnits="userSpaceOnUse" x1="21.3643" y1="23.3566" x2="25.52" y2="23.3566">
								<stop  offset="0" style="stop-color:#834D9B"/>
								<stop  offset="1" style="stop-color:#A84D9B"/>
							</linearGradient>
							<path style="fill:url(#SVGID_10_);" d="M25.3,24.2c-0.5,1-1.7,1.5-2.8,1c-1-0.5-1.5-1.7-1-2.8c0.5-1,1.7-1.5,2.8-1
								C25.4,22,25.8,23.2,25.3,24.2z"/>
						</g>
					</g>
					<g>
						<linearGradient id="SVGID_11_" gradientUnits="userSpaceOnUse" x1="23.9221" y1="19.9983" x2="29.6656" y2="19.9983">
							<stop  offset="3.535350e-02" style="stop-color:#9F19AB"/>
							<stop  offset="0.2438" style="stop-color:#AE25B1"/>
							<stop  offset="0.6455" style="stop-color:#D744BF"/>
							<stop  offset="1" style="stop-color:#FF63CE"/>
						</linearGradient>
						<path style="fill:url(#SVGID_11_);" d="M29.7,18.4c0,0-0.1,1.8-0.9,3.2c0,0-3.7,0.4-4.9-2c0,0-0.1-1.4,1.4-0.2
							C26.8,20.5,29.7,18.4,29.7,18.4z"/>
					</g>
					<g>
						<linearGradient id="SVGID_12_" gradientUnits="userSpaceOnUse" x1="10.5226" y1="16.7518" x2="23.1297" y2="16.7518">
							<stop  offset="0" style="stop-color:#834D9B"/>
							<stop  offset="1" style="stop-color:#A84D9B"/>
						</linearGradient>
						<ellipse style="fill:url(#SVGID_12_);" cx="16.8" cy="16.8" rx="6.3" ry="6.3"/>
					</g>
					<g>
						<ellipse style="fill:#EAE8E9;" cx="16.8" cy="16.8" rx="5.6" ry="5.6"/>
					</g>
				</g>
				<g style="display:none;">
					<path style="display:inline;fill:#991135;" d="M22-2.8c-0.5,0-0.9-0.1-1.6,2.4c-0.7,2.5-7.3,2.5-8,0s-1.1-2.4-1.6-2.4
						c-0.5,0-1.5,2.3-0.6,4.3c0.5,1.2,1.1,1.7,1.5,1.9c0.3,0.1,0.4,0.4,0.4,0.7v0.1h4.3h4.3V4.1c0-0.3,0.2-0.6,0.4-0.7
						c0.4-0.2,0.9-0.7,1.5-1.9C23.5-0.5,22.5-2.8,22-2.8z"/>
				</g>
				<g style="display:none;">
					<path style="display:inline;fill:#991135;" d="M9.2,5.4c0.1,0.7-2,1.6-4.6,1.9s-4.8,0-4.9-0.8c-0.1-0.7,2-1.6,4.6-1.9
						S9.1,4.7,9.2,5.4z"/>
				</g>
				<g style="display:none;">
					<path style="display:inline;fill:#991135;" d="M4.3,4.7c2.6-0.3,4.8,0,4.9,0.8L9,3.4C8.9,2.7,6.7,2.4,4.1,2.7
						C1.5,3-0.5,3.9-0.4,4.6l0.2,2C-0.3,5.8,1.7,5,4.3,4.7z"/>
				</g>
				<g style="display:none;">
					<path style="display:inline;fill:#991135;" d="M23.5,5.4c-0.1,0.7,2,1.6,4.6,1.9s4.8,0,4.9-0.8c0.1-0.7-2-1.6-4.6-1.9
						S23.6,4.7,23.5,5.4z"/>
				</g>
				<g style="display:none;">
					<path style="display:inline;fill:#991135;" d="M28.4,4.7c-2.6-0.3-4.8,0-4.9,0.8l0.2-2c0.1-0.7,2.3-1.1,4.9-0.8
						s4.7,1.2,4.6,1.9l-0.2,2C33.1,5.8,31,5,28.4,4.7z"/>
				</g>
				<g style="display:none;">
					<g style="display:inline;">
						<g>
							<path style="fill:#991135;" d="M26.6,5c0.6,0,1.2,0,1.8,0.1c2.7,0.3,4.1,1.1,4.2,1.4C32.4,6.7,31.7,7,30,7
								c-0.6,0-1.2,0-1.8-0.1c-2.7-0.3-4.1-1.1-4.2-1.4C24.1,5.3,24.9,5,26.6,5L26.6,5z M26.6,4.5c-1.7,0-2.9,0.3-3,0.9
								c-0.1,0.7,2,1.6,4.6,1.9c0.7,0.1,1.3,0.1,1.9,0.1c1.7,0,2.9-0.3,3-0.9c0.1-0.7-2-1.6-4.6-1.9C27.8,4.6,27.1,4.5,26.6,4.5
								L26.6,4.5z"/>
						</g>
					</g>
				</g>
				<g style="display:none;">
					<g style="display:inline;">
						<g>
							<path style="fill:#991135;" d="M6.2,5c1.7,0,2.4,0.3,2.6,0.5C8.7,5.8,7.3,6.6,4.6,6.9C4,7,3.4,7,2.8,7C1.1,7,0.3,6.7,0.2,6.5
								c0.1-0.3,1.4-1.1,4.2-1.4C5,5,5.6,5,6.2,5L6.2,5z M6.2,4.5c-0.6,0-1.2,0-1.9,0.1C1.7,5-0.3,5.8-0.2,6.6
								c0.1,0.5,1.3,0.9,3,0.9c0.6,0,1.2,0,1.9-0.1C7.3,7,9.3,6.2,9.2,5.4C9.2,4.9,7.9,4.5,6.2,4.5L6.2,4.5z"/>
						</g>
					</g>
				</g>
				<g style="display:none;">
					<path style="display:inline;fill:#989FA8;" d="M11.3-1.9c0,0,0-0.5-0.3-0.5c-0.3,0-0.6,0-0.7,1c-0.1,0.9-0.2,2.4,0.5,3.5
						c0.7,1.1,1.4,1.3,1.7,1.2c0.3-0.1-0.7-1.3-0.9-2.3C11.3,0,11.3-1.9,11.3-1.9z"/>
				</g>
				<g style="display:none;">
					<path style="display:inline;fill:#989FA8;" d="M20.9-1c0,0-0.2,2.5-2.9,2.5c-2.6,0-1.6,0.5-1.2,0.7c0.4,0.1,2.9,0.6,4-0.5
						s0.9-3.4,0.8-3.6C21.6-2.1,21.1-2.1,20.9-1z"/>
				</g>
				<g style="display:none;">
					<path style="display:inline;fill:#989FA8;" d="M7.2,2.6C6.4,2.5,5.3,2.5,4.1,2.7C1.5,3-0.5,3.9-0.4,4.6l0.2,2
						c0-0.4,0.5-0.8,1.4-1.2C2.7,4.1,5.4,3.2,7.2,2.6z"/>
				</g>
				<g style="display:none;">
					<path style="display:inline;fill:#AA224C;" d="M4.4,5.1C1.7,5.4,0.3,6.2,0.2,6.5C0.3,6.7,1.1,7,2.8,7c0,0,0.1,0,0.1,0
						C3,6.1,4.1,5.4,5.1,5C4.9,5.1,4.6,5.1,4.4,5.1z"/>
				</g>
				<g style="display:none;">
					<path style="display:inline;fill:#AA224C;" d="M28.4,5.1C27.7,5,27.1,5,26.6,5c-1.7,0-2.4,0.3-2.6,0.5c0.1,0.2,1.1,0.9,3.1,1.2
						c1-0.5,2.7-0.8,4.2-0.9C30.6,5.5,29.6,5.3,28.4,5.1z"/>
				</g>
				<g style="display:none;">
					<path style="display:inline;fill:#989FA8;" d="M28.6,2.7c-2.6-0.3-4.8,0-4.9,0.8l-0.2,2c0.1-0.7,1.9-1,4.2-0.8
						c0.7-0.8,1.7-1.3,2.7-1.6C29.9,2.9,29.3,2.8,28.6,2.7z"/>
				</g>
				<g style="display:none;">
					<path style="display:inline;fill:#989FA8;" d="M12.7,8.1c0,0-2.5,1.3-2.7,3.2c-0.1,2,0.4-0.9,3.4-1.8c2.8-0.9,4.2-0.2,4.7-0.2
						C18.5,9.4,16.4,6.6,12.7,8.1z"/>
				</g>
				<g style="display:none;">
					<path style="display:inline;fill:#989FA8;" d="M20.3,25.2c-2,0.5,2.6,0.9,4,0c1.3-0.8,1.1-5.7,0.9-6.5
						C24.8,18,23,24.5,20.3,25.2z"/>
				</g>
				<g style="display:none;">
					<path style="display:inline;fill:#989FA8;" d="M9-1.6c0,0-4.9,0.9-6.3,2S1.4,1.6,2,1.6c0.6,0,3-0.1,4.8-1.4S10.2-1.9,9-1.6z"/>
				</g>
				<g style="display:none;">
					<path style="display:inline;fill:#989FA8;" d="M27.7-0.7c0,0-2.4-0.9-3.3-1.1c-1-0.2-0.5,1.2-0.5,1.9s2.3,0.8,3.8,0.9
						s2.4,0.8,2.6,0.2C30.4,0.8,28.5-0.3,27.7-0.7z"/>
				</g>
			</g>
			<path style="fill:#EFEFEF;" d="M21.4,13.6c-1-1.1-2.4-1.8-4-1.8c-2.9,0-5.3,2.4-5.3,5.3c0,1.7,0.8,3.3,2.1,4.2
				C16.2,17.3,18.9,14.9,21.4,13.6z"/>
		</g>
	</g>
</g>
<g>
	<linearGradient id="SVGID_13_" gradientUnits="userSpaceOnUse" x1="12.3906" y1="16.7161" x2="14.6374" y2="16.7161">
		<stop  offset="0" style="stop-color:#834D9B"/>
		<stop  offset="1" style="stop-color:#A84D9B"/>
	</linearGradient>
	<path style="fill:url(#SVGID_13_);" d="M13.2,18.2v-2.4h-0.8v-0.5h2.2v0.5h-0.8v2.4H13.2z"/>
	<linearGradient id="SVGID_14_" gradientUnits="userSpaceOnUse" x1="15.071" y1="16.7161" x2="16.9332" y2="16.7161">
		<stop  offset="0" style="stop-color:#834D9B"/>
		<stop  offset="1" style="stop-color:#A84D9B"/>
	</linearGradient>
	<path style="fill:url(#SVGID_14_);" d="M15.1,18.2v-2.9h1.8v0.5h-1.2v0.6h1.1v0.5h-1.1v0.7h1.3v0.5H15.1z"/>
	<linearGradient id="SVGID_15_" gradientUnits="userSpaceOnUse" x1="17.4204" y1="16.7161" x2="19.2169" y2="16.7161">
		<stop  offset="0" style="stop-color:#834D9B"/>
		<stop  offset="1" style="stop-color:#A84D9B"/>
	</linearGradient>
	<path style="fill:url(#SVGID_15_);" d="M17.4,18.2v-2.9H18v2.4h1.2v0.5H17.4z"/>
	<linearGradient id="SVGID_16_" gradientUnits="userSpaceOnUse" x1="19.6466" y1="16.7161" x2="21.5087" y2="16.7161">
		<stop  offset="0" style="stop-color:#834D9B"/>
		<stop  offset="1" style="stop-color:#A84D9B"/>
	</linearGradient>
	<path style="fill:url(#SVGID_16_);" d="M19.6,18.2v-2.9h1.8v0.5h-1.2v0.6h1.1v0.5h-1.1v0.7h1.3v0.5H19.6z"/>
</g>
</svg>
