<?xml version="1.0" encoding="utf-8"?>
<!-- Generator: Adobe Illustrator 24.2.3, SVG Export Plug-In . SVG Version: 6.00 Build 0)  -->
<svg version="1.1" id="Layer_1" xmlns="http://www.w3.org/2000/svg" xmlns:xlink="http://www.w3.org/1999/xlink" x="0px" y="0px"
	 viewBox="0 0 45 50" style="enable-background:new 0 0 45 50;" xml:space="preserve">
<g id="Layer_2_2_">
	<g>
		<g>
			<g>
				<linearGradient id="SVGID_1_" gradientUnits="userSpaceOnUse" x1="1.0394" y1="25.7812" x2="44.5885" y2="25.7812">
					<stop  offset="3.535350e-02" style="stop-color:#9F19AB"/>
					<stop  offset="0.2438" style="stop-color:#AE25B1"/>
					<stop  offset="0.6455" style="stop-color:#D744BF"/>
					<stop  offset="1" style="stop-color:#FF63CE"/>
				</linearGradient>
				<circle style="fill:url(#SVGID_1_);" cx="22.8" cy="25.8" r="21.8"/>
				<g style="display:none;">
					<path style="display:inline;fill:#991135;" d="M40.6,1C32.5-2.2,22-2,22-2S11.6-2.2,3.5,1c0,0-5.5,2.1-5.2,6.8h0
						c1-0.8,3.3-1.6,6.1-1.9c3-0.4,5.6-0.1,6.6,0.5h0c0,0-0.5-4.5,11-4.3c11.5-0.1,11,4.3,11,4.3h0c1-0.6,3.6-0.9,6.6-0.5
						c2.8,0.3,5.1,1.1,6.1,1.9h0C46.2,3.1,40.6,1,40.6,1z"/>
				</g>
				<g>
					<g>
						<ellipse style="fill:#6A1B9A;" cx="22.7" cy="26.2" rx="18.5" ry="18.5"/>
					</g>
				</g>
				<g>
					<g>
						<ellipse style="fill:#F4F4F4;" cx="22.7" cy="26.2" rx="17.7" ry="17.7"/>
					</g>
					<g>
						<g>
							<linearGradient id="SVGID_2_" gradientUnits="userSpaceOnUse" x1="28.7591" y1="16.4673" x2="34.7454" y2="16.4673">
								<stop  offset="0" style="stop-color:#834D9B"/>
								<stop  offset="1" style="stop-color:#A84D9B"/>
							</linearGradient>
							<path style="fill:url(#SVGID_2_);" d="M34.5,17.7c-0.7,1.5-2.5,2.1-4,1.4c-1.5-0.7-2.1-2.5-1.4-4c0.7-1.5,2.5-2.1,4-1.4
								C34.5,14.5,35.2,16.2,34.5,17.7z"/>
						</g>
						<g>
							<linearGradient id="SVGID_3_" gradientUnits="userSpaceOnUse" x1="21.5423" y1="13.0897" x2="27.5273" y2="13.0897">
								<stop  offset="0" style="stop-color:#834D9B"/>
								<stop  offset="1" style="stop-color:#A84D9B"/>
							</linearGradient>
							<path style="fill:url(#SVGID_3_);" d="M27.2,14.4c-0.7,1.5-2.5,2.1-4,1.4c-1.5-0.7-2.1-2.5-1.4-4c0.7-1.5,2.5-2.1,4-1.4
								C27.3,11.1,27.9,12.9,27.2,14.4z"/>
						</g>
						<g>
							<linearGradient id="SVGID_4_" gradientUnits="userSpaceOnUse" x1="13.7846" y1="14.1799" x2="19.7696" y2="14.1799">
								<stop  offset="0" style="stop-color:#834D9B"/>
								<stop  offset="1" style="stop-color:#A84D9B"/>
							</linearGradient>
							<path style="fill:url(#SVGID_4_);" d="M19.5,15.4c-0.7,1.5-2.5,2.1-4,1.4c-1.5-0.7-2.1-2.5-1.4-4c0.7-1.5,2.5-2.1,4-1.4
								C19.5,12.2,20.2,14,19.5,15.4z"/>
						</g>
						<g>
							<linearGradient id="SVGID_5_" gradientUnits="userSpaceOnUse" x1="8.295" y1="19.2783" x2="14.2813" y2="19.2783">
								<stop  offset="0" style="stop-color:#834D9B"/>
								<stop  offset="1" style="stop-color:#A84D9B"/>
							</linearGradient>
							<path style="fill:url(#SVGID_5_);" d="M14,20.5c-0.7,1.5-2.5,2.1-4,1.4c-1.5-0.7-2.1-2.5-1.4-4c0.7-1.5,2.5-2.1,4-1.4
								C14.1,17.3,14.7,19,14,20.5z"/>
						</g>
						<g>
							<linearGradient id="SVGID_6_" gradientUnits="userSpaceOnUse" x1="6.4609" y1="26.8864" x2="12.4459" y2="26.8864">
								<stop  offset="0" style="stop-color:#834D9B"/>
								<stop  offset="1" style="stop-color:#A84D9B"/>
							</linearGradient>
							<path style="fill:url(#SVGID_6_);" d="M12.2,28.2c-0.7,1.5-2.5,2.1-4,1.4c-1.5-0.7-2.1-2.5-1.4-4c0.7-1.5,2.5-2.1,4-1.4
								C12.2,24.9,12.9,26.7,12.2,28.2z"/>
						</g>
						<g>
							<linearGradient id="SVGID_7_" gradientUnits="userSpaceOnUse" x1="9.0838" y1="34.0348" x2="15.0701" y2="34.0348">
								<stop  offset="0" style="stop-color:#834D9B"/>
								<stop  offset="1" style="stop-color:#A84D9B"/>
							</linearGradient>
							<path style="fill:url(#SVGID_7_);" d="M14.8,35.3c-0.7,1.5-2.5,2.1-4,1.4c-1.5-0.7-2.1-2.5-1.4-4c0.7-1.5,2.5-2.1,4-1.4
								C14.8,32,15.5,33.8,14.8,35.3z"/>
						</g>
						<g>
							<linearGradient id="SVGID_8_" gradientUnits="userSpaceOnUse" x1="15.08" y1="38.6458" x2="21.0663" y2="38.6458">
								<stop  offset="0" style="stop-color:#834D9B"/>
								<stop  offset="1" style="stop-color:#A84D9B"/>
							</linearGradient>
							<path style="fill:url(#SVGID_8_);" d="M20.8,39.9c-0.7,1.5-2.5,2.1-4,1.4c-1.5-0.7-2.1-2.5-1.4-4c0.7-1.5,2.5-2.1,4-1.4
								C20.8,36.6,21.5,38.4,20.8,39.9z"/>
						</g>
						<g>
							<linearGradient id="SVGID_9_" gradientUnits="userSpaceOnUse" x1="22.5406" y1="39.2209" x2="28.5256" y2="39.2209">
								<stop  offset="0" style="stop-color:#834D9B"/>
								<stop  offset="1" style="stop-color:#A84D9B"/>
							</linearGradient>
							<path style="fill:url(#SVGID_9_);" d="M28.2,40.5c-0.7,1.5-2.5,2.1-4,1.4c-1.5-0.7-2.1-2.5-1.4-4c0.7-1.5,2.5-2.1,4-1.4
								C28.3,37.2,28.9,39,28.2,40.5z"/>
						</g>
						<g>
							<linearGradient id="SVGID_10_" gradientUnits="userSpaceOnUse" x1="29.2102" y1="35.6701" x2="35.1965" y2="35.6701">
								<stop  offset="0" style="stop-color:#834D9B"/>
								<stop  offset="1" style="stop-color:#A84D9B"/>
							</linearGradient>
							<path style="fill:url(#SVGID_10_);" d="M34.9,36.9c-0.7,1.5-2.5,2.1-4,1.4c-1.5-0.7-2.1-2.5-1.4-4c0.7-1.5,2.5-2.1,4-1.4
								C35,33.7,35.6,35.4,34.9,36.9z"/>
						</g>
					</g>
					<g>
						<linearGradient id="SVGID_11_" gradientUnits="userSpaceOnUse" x1="32.8947" y1="30.8326" x2="41.1682" y2="30.8326">
							<stop  offset="3.535350e-02" style="stop-color:#9F19AB"/>
							<stop  offset="0.2438" style="stop-color:#AE25B1"/>
							<stop  offset="0.6455" style="stop-color:#D744BF"/>
							<stop  offset="1" style="stop-color:#FF63CE"/>
						</linearGradient>
						<path style="fill:url(#SVGID_11_);" d="M41.2,28.5c0,0-0.2,2.7-1.2,4.7c0,0-5.3,0.6-7-2.9c0,0-0.1-2,2-0.3
							C37,31.6,41.2,28.5,41.2,28.5z"/>
					</g>
					<g>
						<linearGradient id="SVGID_12_" gradientUnits="userSpaceOnUse" x1="13.593" y1="26.156" x2="31.7532" y2="26.156">
							<stop  offset="0" style="stop-color:#834D9B"/>
							<stop  offset="1" style="stop-color:#A84D9B"/>
						</linearGradient>
						<ellipse style="fill:url(#SVGID_12_);" cx="22.7" cy="26.2" rx="9.1" ry="9.1"/>
					</g>
					<g>
						<ellipse style="fill:#EAE8E9;" cx="22.7" cy="26.2" rx="8" ry="8"/>
					</g>
				</g>
				<g style="display:none;">
					<path style="display:inline;fill:#991135;" d="M30.1-2c-0.8,0-1.3-0.2-2.3,3.4c-1,3.6-10.5,3.6-11.5,0C15.3-2.2,14.7-2,14-2
						c-0.8,0-2.2,3.3-0.9,6.2c0.8,1.7,1.6,2.4,2.1,2.7c0.4,0.2,0.6,0.6,0.6,1v0.2H22h6.2V8c0-0.4,0.2-0.8,0.6-1
						c0.5-0.3,1.3-1,2.1-2.7C32.3,1.3,30.9-2,30.1-2z"/>
				</g>
				<g style="display:none;">
					<path style="display:inline;fill:#991135;" d="M11.7,9.8c0.1,1.1-2.8,2.3-6.6,2.7s-6.9,0-7-1.1C-2,10.4,0.9,9.2,4.7,8.8
						C8.5,8.3,11.6,8.8,11.7,9.8z"/>
				</g>
				<g style="display:none;">
					<path style="display:inline;fill:#991135;" d="M4.7,8.8c3.8-0.5,6.9,0,7,1.1L11.4,7c-0.1-1.1-3.3-1.5-7-1.1s-6.7,1.7-6.6,2.7
						l0.3,2.9C-2,10.4,0.9,9.2,4.7,8.8z"/>
				</g>
				<g style="display:none;">
					<path style="display:inline;fill:#991135;" d="M32.4,9.8c-0.1,1.1,2.8,2.3,6.6,2.7c3.8,0.5,6.9,0,7-1.1
						c0.1-1.1-2.8-2.3-6.6-2.7C35.6,8.3,32.5,8.8,32.4,9.8z"/>
				</g>
				<g style="display:none;">
					<path style="display:inline;fill:#991135;" d="M39.4,8.8c-3.8-0.5-6.9,0-7,1.1L32.7,7c0.1-1.1,3.3-1.5,7-1.1s6.7,1.7,6.6,2.7
						L46,11.5C46.1,10.4,43.2,9.2,39.4,8.8z"/>
				</g>
				<g style="display:none;">
					<g style="display:inline;">
						<g>
							<path style="fill:#991135;" d="M36.7,9.2c0.8,0,1.7,0.1,2.6,0.2c3.9,0.5,5.8,1.6,6,2c-0.2,0.2-1.3,0.7-3.7,0.7
								c-0.8,0-1.7-0.1-2.6-0.2c-3.9-0.5-5.8-1.6-6-2C33.2,9.7,34.3,9.2,36.7,9.2L36.7,9.2z M36.7,8.6c-2.5,0-4.2,0.5-4.3,1.3
								c-0.1,1.1,2.8,2.3,6.6,2.7c1,0.1,1.9,0.2,2.7,0.2c2.5,0,4.2-0.5,4.3-1.3c0.1-1.1-2.8-2.3-6.6-2.7C38.4,8.6,37.5,8.6,36.7,8.6
								L36.7,8.6z"/>
						</g>
					</g>
				</g>
				<g style="display:none;">
					<g style="display:inline;">
						<g>
							<path style="fill:#991135;" d="M7.4,9.2c2.4,0,3.5,0.5,3.7,0.7c-0.2,0.4-2.1,1.5-6,2c-0.9,0.1-1.8,0.2-2.6,0.2
								c-2.4,0-3.5-0.5-3.7-0.7c0.2-0.4,2.1-1.5,6-2C5.7,9.3,6.6,9.2,7.4,9.2L7.4,9.2z M7.4,8.6c-0.8,0-1.8,0.1-2.7,0.2
								C0.9,9.2-2,10.4-1.9,11.5c0.1,0.8,1.9,1.3,4.3,1.3c0.8,0,1.8-0.1,2.7-0.2c3.8-0.5,6.7-1.7,6.6-2.7C11.6,9.1,9.9,8.6,7.4,8.6
								L7.4,8.6z"/>
						</g>
					</g>
				</g>
				<g style="display:none;">
					<path style="display:inline;fill:#989FA8;" d="M14.7-0.7c0,0-0.1-0.7-0.4-0.7c-0.4,0-0.9,0.1-1.1,1.4C13,1.2,13,3.4,14,5
						c1,1.6,2.1,1.8,2.5,1.7c0.4-0.1-1-1.9-1.4-3.3C14.8,2,14.7-0.7,14.7-0.7z"/>
				</g>
				<g style="display:none;">
					<path style="display:inline;fill:#989FA8;" d="M28.5,0.6c0,0-0.3,3.6-4.1,3.7c-3.8,0-2.4,0.8-1.8,0.9c0.6,0.2,4.2,0.9,5.8-0.7
						c1.6-1.7,1.2-4.9,1.2-5.2C29.5-1,28.8-1,28.5,0.6z"/>
				</g>
				<g style="display:none;">
					<path style="display:inline;fill:#989FA8;" d="M8.8,5.8C7.6,5.7,6.1,5.7,4.4,5.9C0.6,6.4-2.3,7.6-2.2,8.6l0.3,2.9
						c-0.1-0.6,0.7-1.2,2.1-1.7C2.3,7.9,6.2,6.6,8.8,5.8z"/>
				</g>
				<g style="display:none;">
					<path style="display:inline;fill:#AA224C;" d="M4.8,9.4c-3.9,0.5-5.8,1.6-6,2c0.2,0.2,1.3,0.7,3.7,0.7c0.1,0,0.1,0,0.2,0
						c0.2-1.3,1.8-2.2,3.2-2.8C5.4,9.3,5.1,9.4,4.8,9.4z"/>
				</g>
				<g style="display:none;">
					<path style="display:inline;fill:#AA224C;" d="M39.3,9.4c-0.9-0.1-1.8-0.2-2.6-0.2c-2.4,0-3.5,0.5-3.7,0.7
						c0.1,0.3,1.6,1.2,4.5,1.8c1.4-0.7,3.8-1.1,6.1-1.4C42.5,10,41.1,9.6,39.3,9.4z"/>
				</g>
				<g style="display:none;">
					<path style="display:inline;fill:#989FA8;" d="M39.7,5.9c-3.8-0.5-6.9,0-7,1.1l-0.3,2.9c0.1-1,2.8-1.5,6.1-1.2
						c1-1.1,2.5-1.9,3.8-2.3C41.5,6.2,40.6,6,39.7,5.9z"/>
				</g>
				<g style="display:none;">
					<path style="display:inline;fill:#989FA8;" d="M16.7,13.7c0,0-3.6,1.8-3.8,4.7c-0.2,2.8,0.6-1.2,4.9-2.6
						c4.1-1.3,6.1-0.3,6.7-0.3C25.1,15.5,22,11.6,16.7,13.7z"/>
				</g>
				<g style="display:none;">
					<path style="display:inline;fill:#989FA8;" d="M27.6,38.3c-2.8,0.8,3.8,1.3,5.7,0.1c1.8-1.2,1.6-8.2,1.2-9.3
						C34.2,28,31.5,37.3,27.6,38.3z"/>
				</g>
				<g style="display:none;">
					<path style="display:inline;fill:#989FA8;" d="M11.4-0.3c0,0-7,1.3-9.1,2.9s-1.8,1.7-1,1.7c0.9,0.1,4.4-0.1,6.9-2
						S13.1-0.7,11.4-0.3z"/>
				</g>
				<g style="display:none;">
					<path style="display:inline;fill:#989FA8;" d="M38.3,1.1c0,0-3.4-1.3-4.8-1.5c-1.4-0.2-0.7,1.7-0.7,2.7c0,1.1,3.4,1.1,5.4,1.3
						c2.1,0.1,3.5,1.1,3.7,0.3C42.2,3.1,39.4,1.5,38.3,1.1z"/>
				</g>
			</g>
			<path style="fill:#EFEFEF;" d="M29.2,21.6C27.8,20,25.8,19,23.5,19c-4.2,0-7.6,3.4-7.6,7.6c0,2.5,1.2,4.7,3.1,6.1
				C21.8,26.9,25.6,23.5,29.2,21.6z"/>
		</g>
	</g>
</g>
<g>
	<linearGradient id="SVGID_13_" gradientUnits="userSpaceOnUse" x1="16.2837" y1="26.1045" x2="19.5202" y2="26.1045">
		<stop  offset="0" style="stop-color:#834D9B"/>
		<stop  offset="1" style="stop-color:#A84D9B"/>
	</linearGradient>
	<path style="fill:url(#SVGID_13_);" d="M17.5,28.2v-3.4h-1.2V24h3.2v0.8h-1.2v3.4H17.5z"/>
	<linearGradient id="SVGID_14_" gradientUnits="userSpaceOnUse" x1="20.1449" y1="26.1045" x2="22.8272" y2="26.1045">
		<stop  offset="0" style="stop-color:#834D9B"/>
		<stop  offset="1" style="stop-color:#A84D9B"/>
	</linearGradient>
	<path style="fill:url(#SVGID_14_);" d="M20.1,28.2V24h2.6v0.7H21v0.9h1.6v0.7H21v1h1.8v0.7H20.1z"/>
	<linearGradient id="SVGID_15_" gradientUnits="userSpaceOnUse" x1="23.5291" y1="26.1045" x2="26.117" y2="26.1045">
		<stop  offset="0" style="stop-color:#834D9B"/>
		<stop  offset="1" style="stop-color:#A84D9B"/>
	</linearGradient>
	<path style="fill:url(#SVGID_15_);" d="M23.5,28.2V24h0.9v3.4h1.7v0.8H23.5z"/>
	<linearGradient id="SVGID_16_" gradientUnits="userSpaceOnUse" x1="26.7359" y1="26.1045" x2="29.4182" y2="26.1045">
		<stop  offset="0" style="stop-color:#834D9B"/>
		<stop  offset="1" style="stop-color:#A84D9B"/>
	</linearGradient>
	<path style="fill:url(#SVGID_16_);" d="M26.7,28.2V24h2.6v0.7h-1.8v0.9h1.6v0.7h-1.6v1h1.8v0.7H26.7z"/>
</g>
</svg>
