<?xml version="1.0" encoding="utf-8"?>
<!-- Generator: Adobe Illustrator 24.2.3, SVG Export Plug-In . SVG Version: 6.00 Build 0)  -->
<svg version="1.1" id="Layer_1" xmlns="http://www.w3.org/2000/svg" xmlns:xlink="http://www.w3.org/1999/xlink" x="0px" y="0px"
	 viewBox="0 0 33 32" style="enable-background:new 0 0 33 32;" xml:space="preserve">
<g id="Layer_2_2_">
	<g>
		<g>
			<g>
				<linearGradient id="SVGID_1_" gradientUnits="userSpaceOnUse" x1="0.7173" y1="16.2127" x2="32.0132" y2="16.2127">
					<stop  offset="3.535350e-02" style="stop-color:#9F19AB"/>
					<stop  offset="0.2438" style="stop-color:#AE25B1"/>
					<stop  offset="0.6455" style="stop-color:#D744BF"/>
					<stop  offset="1" style="stop-color:#FF63CE"/>
				</linearGradient>
				<circle style="fill:url(#SVGID_1_);" cx="16.4" cy="16.2" r="15.6"/>
				<g style="display:none;">
					<path style="display:inline;fill:#991135;" d="M29.2-1.6c-5.8-2.3-13.4-2.1-13.4-2.1S8.3-3.9,2.5-1.6c0,0-4,1.5-3.7,4.9h0
						c0.7-0.6,2.4-1.1,4.4-1.4c2.2-0.3,4-0.1,4.8,0.4h0c0,0-0.3-3.2,7.9-3.1c8.3-0.1,7.9,3.1,7.9,3.1h0c0.7-0.5,2.6-0.6,4.8-0.4
						c2,0.2,3.7,0.8,4.4,1.4h0C33.1-0.1,29.2-1.6,29.2-1.6z"/>
				</g>
				<g>
					<g>
						<ellipse style="fill:#6A1B9A;" cx="16.3" cy="16.5" rx="13.3" ry="13.3"/>
					</g>
				</g>
				<g>
					<g>
						<ellipse style="fill:#F4F4F4;" cx="16.3" cy="16.5" rx="12.7" ry="12.7"/>
					</g>
					<g>
						<g>
							<linearGradient id="SVGID_2_" gradientUnits="userSpaceOnUse" x1="20.6377" y1="9.5194" x2="24.9396" y2="9.5194">
								<stop  offset="0" style="stop-color:#834D9B"/>
								<stop  offset="1" style="stop-color:#A84D9B"/>
							</linearGradient>
							<path style="fill:url(#SVGID_2_);" d="M24.7,10.4c-0.5,1.1-1.8,1.5-2.9,1c-1.1-0.5-1.5-1.8-1-2.9c0.5-1.1,1.8-1.5,2.9-1
								C24.8,8.1,25.2,9.4,24.7,10.4z"/>
						</g>
						<g>
							<linearGradient id="SVGID_3_" gradientUnits="userSpaceOnUse" x1="15.4514" y1="7.0921" x2="19.7524" y2="7.0921">
								<stop  offset="0" style="stop-color:#834D9B"/>
								<stop  offset="1" style="stop-color:#A84D9B"/>
							</linearGradient>
							<path style="fill:url(#SVGID_3_);" d="M19.5,8c-0.5,1.1-1.8,1.5-2.9,1c-1.1-0.5-1.5-1.8-1-2.9c0.5-1.1,1.8-1.5,2.9-1
								C19.6,5.6,20.1,6.9,19.5,8z"/>
						</g>
						<g>
							<linearGradient id="SVGID_4_" gradientUnits="userSpaceOnUse" x1="9.8764" y1="7.8756" x2="14.1775" y2="7.8756">
								<stop  offset="0" style="stop-color:#834D9B"/>
								<stop  offset="1" style="stop-color:#A84D9B"/>
							</linearGradient>
							<path style="fill:url(#SVGID_4_);" d="M14,8.8c-0.5,1.1-1.8,1.5-2.9,1C10,9.3,9.6,8,10.1,7c0.5-1.1,1.8-1.5,2.9-1
								S14.5,7.7,14,8.8z"/>
						</g>
						<g>
							<linearGradient id="SVGID_5_" gradientUnits="userSpaceOnUse" x1="5.9314" y1="11.5395" x2="10.2334" y2="11.5395">
								<stop  offset="0" style="stop-color:#834D9B"/>
								<stop  offset="1" style="stop-color:#A84D9B"/>
							</linearGradient>
							<path style="fill:url(#SVGID_5_);" d="M10,12.5c-0.5,1.1-1.8,1.5-2.9,1c-1.1-0.5-1.5-1.8-1-2.9c0.5-1.1,1.8-1.5,2.9-1
								C10.1,10.1,10.5,11.4,10,12.5z"/>
						</g>
						<g>
							<linearGradient id="SVGID_6_" gradientUnits="userSpaceOnUse" x1="4.6134" y1="17.0069" x2="8.9144" y2="17.0069">
								<stop  offset="0" style="stop-color:#834D9B"/>
								<stop  offset="1" style="stop-color:#A84D9B"/>
							</linearGradient>
							<path style="fill:url(#SVGID_6_);" d="M8.7,17.9c-0.5,1.1-1.8,1.5-2.9,1c-1.1-0.5-1.5-1.8-1-2.9c0.5-1.1,1.8-1.5,2.9-1
								C8.8,15.6,9.2,16.8,8.7,17.9z"/>
						</g>
						<g>
							<linearGradient id="SVGID_7_" gradientUnits="userSpaceOnUse" x1="6.4983" y1="22.144" x2="10.8003" y2="22.144">
								<stop  offset="0" style="stop-color:#834D9B"/>
								<stop  offset="1" style="stop-color:#A84D9B"/>
							</linearGradient>
							<path style="fill:url(#SVGID_7_);" d="M10.6,23.1c-0.5,1.1-1.8,1.5-2.9,1c-1.1-0.5-1.5-1.8-1-2.9c0.5-1.1,1.8-1.5,2.9-1
								C10.6,20.7,11.1,22,10.6,23.1z"/>
						</g>
						<g>
							<linearGradient id="SVGID_8_" gradientUnits="userSpaceOnUse" x1="10.8074" y1="25.4576" x2="15.1094" y2="25.4576">
								<stop  offset="0" style="stop-color:#834D9B"/>
								<stop  offset="1" style="stop-color:#A84D9B"/>
							</linearGradient>
							<path style="fill:url(#SVGID_8_);" d="M14.9,26.4c-0.5,1.1-1.8,1.5-2.9,1c-1.1-0.5-1.5-1.8-1-2.9c0.5-1.1,1.8-1.5,2.9-1
								C14.9,24,15.4,25.3,14.9,26.4z"/>
						</g>
						<g>
							<linearGradient id="SVGID_9_" gradientUnits="userSpaceOnUse" x1="16.1688" y1="25.8709" x2="20.4698" y2="25.8709">
								<stop  offset="0" style="stop-color:#834D9B"/>
								<stop  offset="1" style="stop-color:#A84D9B"/>
							</linearGradient>
							<path style="fill:url(#SVGID_9_);" d="M20.3,26.8c-0.5,1.1-1.8,1.5-2.9,1c-1.1-0.5-1.5-1.8-1-2.9c0.5-1.1,1.8-1.5,2.9-1
								C20.3,24.4,20.8,25.7,20.3,26.8z"/>
						</g>
						<g>
							<linearGradient id="SVGID_10_" gradientUnits="userSpaceOnUse" x1="20.9618" y1="23.3192" x2="25.2638" y2="23.3192">
								<stop  offset="0" style="stop-color:#834D9B"/>
								<stop  offset="1" style="stop-color:#A84D9B"/>
							</linearGradient>
							<path style="fill:url(#SVGID_10_);" d="M25.1,24.2c-0.5,1.1-1.8,1.5-2.9,1c-1.1-0.5-1.5-1.8-1-2.9c0.5-1.1,1.8-1.5,2.9-1
								C25.1,21.9,25.6,23.2,25.1,24.2z"/>
						</g>
					</g>
					<g>
						<linearGradient id="SVGID_11_" gradientUnits="userSpaceOnUse" x1="23.6096" y1="19.8428" x2="29.5552" y2="19.8428">
							<stop  offset="3.535350e-02" style="stop-color:#9F19AB"/>
							<stop  offset="0.2438" style="stop-color:#AE25B1"/>
							<stop  offset="0.6455" style="stop-color:#D744BF"/>
							<stop  offset="1" style="stop-color:#FF63CE"/>
						</linearGradient>
						<path style="fill:url(#SVGID_11_);" d="M29.6,18.2c0,0-0.1,1.9-0.9,3.3c0,0-3.8,0.4-5.1-2.1c0,0-0.1-1.4,1.4-0.2
							C26.5,20.4,29.6,18.2,29.6,18.2z"/>
					</g>
					<g>
						<linearGradient id="SVGID_12_" gradientUnits="userSpaceOnUse" x1="9.7388" y1="16.482" x2="22.7893" y2="16.482">
							<stop  offset="0" style="stop-color:#834D9B"/>
							<stop  offset="1" style="stop-color:#A84D9B"/>
						</linearGradient>
						<ellipse style="fill:url(#SVGID_12_);" cx="16.3" cy="16.5" rx="6.5" ry="6.5"/>
					</g>
					<g>
						<ellipse style="fill:#EAE8E9;" cx="16.3" cy="16.5" rx="5.7" ry="5.7"/>
					</g>
				</g>
				<g style="display:none;">
					<path style="display:inline;fill:#991135;" d="M21.6-3.7c-0.5,0-1-0.2-1.7,2.4c-0.7,2.6-7.6,2.6-8.3,0C11-3.9,10.6-3.7,10-3.7
						c-0.5,0-1.6,2.4-0.6,4.5C10,2,10.5,2.5,10.9,2.7c0.3,0.1,0.4,0.4,0.4,0.7v0.2h4.5h4.5V3.4c0-0.3,0.2-0.6,0.4-0.7
						c0.4-0.2,0.9-0.7,1.5-1.9C23.2-1.4,22.1-3.7,21.6-3.7z"/>
				</g>
				<g style="display:none;">
					<path style="display:inline;fill:#991135;" d="M8.4,4.8c0.1,0.8-2,1.6-4.7,2s-5,0-5.1-0.8c-0.1-0.8,2-1.6,4.7-2S8.3,4,8.4,4.8z
						"/>
				</g>
				<g style="display:none;">
					<path style="display:inline;fill:#991135;" d="M3.3,4c2.7-0.3,5,0,5.1,0.8L8.2,2.7C8.1,1.9,5.8,1.6,3.1,1.9s-4.8,1.2-4.7,2
						l0.2,2.1C-1.5,5.2,0.6,4.3,3.3,4z"/>
				</g>
				<g style="display:none;">
					<path style="display:inline;fill:#991135;" d="M23.2,4.8c-0.1,0.8,2,1.6,4.7,2s5,0,5.1-0.8c0.1-0.8-2-1.6-4.7-2
						S23.3,4,23.2,4.8z"/>
				</g>
				<g style="display:none;">
					<path style="display:inline;fill:#991135;" d="M28.3,4c-2.7-0.3-5,0-5.1,0.8l0.2-2.1c0.1-0.8,2.4-1.1,5.1-0.8s4.8,1.2,4.7,2
						L33,5.9C33.1,5.2,31,4.3,28.3,4z"/>
				</g>
				<g style="display:none;">
					<g style="display:inline;">
						<g>
							<path style="fill:#991135;" d="M26.3,4.3c0.6,0,1.2,0,1.9,0.1c2.8,0.3,4.2,1.2,4.3,1.5c-0.1,0.2-0.9,0.5-2.6,0.5
								c-0.6,0-1.2,0-1.9-0.1c-2.8-0.3-4.2-1.2-4.3-1.5C23.8,4.6,24.6,4.3,26.3,4.3L26.3,4.3z M26.3,3.9c-1.8,0-3,0.3-3.1,0.9
								c-0.1,0.8,2,1.6,4.7,2c0.7,0.1,1.3,0.1,1.9,0.1c1.8,0,3-0.3,3.1-0.9c0.1-0.8-2-1.6-4.7-2C27.6,3.9,26.9,3.9,26.3,3.9
								L26.3,3.9z"/>
						</g>
					</g>
				</g>
				<g style="display:none;">
					<g style="display:inline;">
						<g>
							<path style="fill:#991135;" d="M5.3,4.3c1.7,0,2.5,0.3,2.6,0.5C7.8,5.1,6.4,5.9,3.6,6.3C3,6.3,2.3,6.4,1.7,6.4
								C0,6.4-0.8,6.1-0.9,5.9c0.1-0.3,1.5-1.1,4.3-1.5C4,4.4,4.7,4.3,5.3,4.3L5.3,4.3z M5.3,3.9C4.7,3.9,4,3.9,3.3,4
								c-2.7,0.3-4.8,1.2-4.7,2C-1.3,6.5,0,6.8,1.7,6.8c0.6,0,1.3,0,1.9-0.1c2.7-0.3,4.8-1.2,4.7-2C8.3,4.2,7.1,3.9,5.3,3.9L5.3,3.9
								z"/>
						</g>
					</g>
				</g>
				<g style="display:none;">
					<path style="display:inline;fill:#989FA8;" d="M10.6-2.8c0,0,0-0.5-0.3-0.5c-0.3,0-0.6,0-0.8,1S9.3,0.1,10,1.3
						c0.7,1.1,1.5,1.3,1.8,1.2c0.3-0.1-0.7-1.4-1-2.4C10.6-0.9,10.6-2.8,10.6-2.8z"/>
				</g>
				<g style="display:none;">
					<path style="display:inline;fill:#989FA8;" d="M20.4-1.8c0,0-0.2,2.6-3,2.6c-2.7,0-1.7,0.5-1.3,0.7c0.4,0.1,3,0.7,4.1-0.5
						c1.1-1.2,0.9-3.6,0.8-3.8C21.2-3.1,20.7-3,20.4-1.8z"/>
				</g>
				<g style="display:none;">
					<path style="display:inline;fill:#989FA8;" d="M6.3,1.9c-0.9-0.1-2-0.1-3.2,0.1c-2.7,0.3-4.8,1.2-4.7,2l0.2,2.1
						c0-0.4,0.5-0.8,1.5-1.2C1.6,3.4,4.4,2.4,6.3,1.9z"/>
				</g>
				<g style="display:none;">
					<path style="display:inline;fill:#AA224C;" d="M3.4,4.4C0.6,4.8-0.8,5.6-0.9,5.9C-0.8,6.1,0,6.4,1.7,6.4c0,0,0.1,0,0.1,0
						c0.1-0.9,1.3-1.6,2.3-2C3.9,4.4,3.6,4.4,3.4,4.4z"/>
				</g>
				<g style="display:none;">
					<path style="display:inline;fill:#AA224C;" d="M28.2,4.4c-0.7-0.1-1.3-0.1-1.9-0.1c-1.7,0-2.5,0.3-2.6,0.5
						c0.1,0.3,1.1,0.9,3.2,1.3c1-0.5,2.8-0.8,4.4-1C30.5,4.9,29.5,4.6,28.2,4.4z"/>
				</g>
				<g style="display:none;">
					<path style="display:inline;fill:#989FA8;" d="M28.5,1.9c-2.7-0.3-5,0-5.1,0.8l-0.2,2.1c0.1-0.7,2-1,4.4-0.9
						c0.7-0.8,1.8-1.3,2.8-1.7C29.8,2.1,29.2,2,28.5,1.9z"/>
				</g>
				<g style="display:none;">
					<path style="display:inline;fill:#989FA8;" d="M12,7.5c0,0-2.6,1.3-2.8,3.4C9,12.9,9.6,10,12.7,9c2.9-0.9,4.4-0.2,4.8-0.2
						C18,8.8,15.8,6,12,7.5z"/>
				</g>
				<g style="display:none;">
					<path style="display:inline;fill:#989FA8;" d="M19.8,25.2c-2,0.6,2.7,1,4.1,0c1.3-0.9,1.1-5.9,0.9-6.7
						C24.6,17.8,22.6,24.5,19.8,25.2z"/>
				</g>
				<g style="display:none;">
					<path style="display:inline;fill:#989FA8;" d="M8.1-2.5c0,0-5.1,0.9-6.5,2.1S0.3,0.8,0.9,0.8c0.6,0,3.1-0.1,4.9-1.4
						S9.4-2.8,8.1-2.5z"/>
				</g>
				<g style="display:none;">
					<path style="display:inline;fill:#989FA8;" d="M27.5-1.5c0,0-2.4-0.9-3.4-1.1c-1-0.2-0.5,1.2-0.5,2s2.4,0.8,3.9,0.9
						C28.9,0.3,30,1,30.1,0.5C30.3-0.1,28.3-1.2,27.5-1.5z"/>
				</g>
			</g>
			<path style="fill:#EFEFEF;" d="M21,13.2c-1-1.2-2.5-1.9-4.1-1.9c-3,0-5.5,2.5-5.5,5.5c0,1.8,0.9,3.4,2.2,4.4
				C15.6,17,18.4,14.6,21,13.2z"/>
		</g>
	</g>
</g>
<g>
	<linearGradient id="SVGID_13_" gradientUnits="userSpaceOnUse" x1="11.6724" y1="16.445" x2="13.9983" y2="16.445">
		<stop  offset="0" style="stop-color:#834D9B"/>
		<stop  offset="1" style="stop-color:#A84D9B"/>
	</linearGradient>
	<path style="fill:url(#SVGID_13_);" d="M12.5,17.9v-2.4h-0.8v-0.6H14v0.6h-0.8v2.4H12.5z"/>
	<linearGradient id="SVGID_14_" gradientUnits="userSpaceOnUse" x1="14.4472" y1="16.445" x2="16.3748" y2="16.445">
		<stop  offset="0" style="stop-color:#834D9B"/>
		<stop  offset="1" style="stop-color:#A84D9B"/>
	</linearGradient>
	<path style="fill:url(#SVGID_14_);" d="M14.4,17.9v-3h1.9v0.5h-1.3v0.7h1.1v0.5h-1.1v0.7h1.3v0.5H14.4z"/>
	<linearGradient id="SVGID_15_" gradientUnits="userSpaceOnUse" x1="16.8792" y1="16.445" x2="18.7389" y2="16.445">
		<stop  offset="0" style="stop-color:#834D9B"/>
		<stop  offset="1" style="stop-color:#A84D9B"/>
	</linearGradient>
	<path style="fill:url(#SVGID_15_);" d="M16.9,17.9v-3h0.6v2.4h1.2v0.6H16.9z"/>
	<linearGradient id="SVGID_16_" gradientUnits="userSpaceOnUse" x1="19.1837" y1="16.445" x2="21.1113" y2="16.445">
		<stop  offset="0" style="stop-color:#834D9B"/>
		<stop  offset="1" style="stop-color:#A84D9B"/>
	</linearGradient>
	<path style="fill:url(#SVGID_16_);" d="M19.2,17.9v-3h1.9v0.5h-1.3v0.7h1.1v0.5h-1.1v0.7h1.3v0.5H19.2z"/>
</g>
</svg>
